<?xml version="1.0" encoding="UTF-8"?>
<svg version="1.1" xmlns="http://www.w3.org/2000/svg" width="62" height="61">
<path d="M0 0 C20.46 0 40.92 0 62 0 C62 20.13 62 40.26 62 61 C41.54 61 21.08 61 0 61 C0 40.87 0 20.74 0 0 Z " fill="#1E203D" transform="translate(0,0)"/>
<path d="M0 0 C2.625 0.375 2.625 0.375 5 1 C6.61737483 5.62107093 7.85248597 10.2460133 9 15 C9.91523437 15.19335938 10.83046875 15.38671875 11.7734375 15.5859375 C12.96195313 15.84632812 14.15046875 16.10671875 15.375 16.375 C16.55835938 16.63023438 17.74171875 16.88546875 18.9609375 17.1484375 C22 18 22 18 24 20 C23.625 22.625 23.625 22.625 23 25 C18.37892907 26.61737483 13.7539867 27.85248597 9 29 C8.80664062 29.91523437 8.61328125 30.83046875 8.4140625 31.7734375 C8.15367188 32.96195313 7.89328125 34.15046875 7.625 35.375 C7.36976562 36.55835938 7.11453125 37.74171875 6.8515625 38.9609375 C6 42 6 42 4 44 C1.375 43.625 1.375 43.625 -1 43 C-2.61737483 38.37892907 -3.85248597 33.7539867 -5 29 C-5.91523438 28.80664062 -6.83046875 28.61328125 -7.7734375 28.4140625 C-8.96195313 28.15367188 -10.15046875 27.89328125 -11.375 27.625 C-12.55835938 27.36976562 -13.74171875 27.11453125 -14.9609375 26.8515625 C-18 26 -18 26 -20 24 C-19.625 21.375 -19.625 21.375 -19 19 C-14.37892907 17.38262517 -9.7539867 16.14751403 -5 15 C-4.80664062 14.08476562 -4.61328125 13.16953125 -4.4140625 12.2265625 C-4.15367188 11.03804687 -3.89328125 9.84953125 -3.625 8.625 C-3.24214844 6.84996094 -3.24214844 6.84996094 -2.8515625 5.0390625 C-2 2 -2 2 0 0 Z " fill="#8357E8" transform="translate(29,9)"/>
<path d="M0 0 C0.66 0 1.32 0 2 0 C2.15855469 0.77085938 2.31710938 1.54171875 2.48046875 2.3359375 C2.71378906 3.33882812 2.94710937 4.34171875 3.1875 5.375 C3.40792969 6.37273438 3.62835938 7.37046875 3.85546875 8.3984375 C4.76421268 11.18677338 4.76421268 11.18677338 7.375 12.28125 C8.24125 12.5184375 9.1075 12.755625 10 13 C11.258125 13.37125 12.51625 13.7425 13.8125 14.125 C14.864375 14.41375 15.91625 14.7025 17 15 C17 15.33 17 15.66 17 16 C16.22914062 16.12117188 15.45828125 16.24234375 14.6640625 16.3671875 C13.66117188 16.53476562 12.65828125 16.70234375 11.625 16.875 C10.12839844 17.11863281 10.12839844 17.11863281 8.6015625 17.3671875 C5.8574885 17.7958802 5.8574885 17.7958802 4 20 C3.32059533 22.42715206 3.32059533 22.42715206 2.875 25.125 C2.70742188 26.03507812 2.53984375 26.94515625 2.3671875 27.8828125 C2.24601562 28.58148438 2.12484375 29.28015625 2 30 C1.34 30 0.68 30 0 30 C-0.12117188 29.30132812 -0.24234375 28.60265625 -0.3671875 27.8828125 C-0.53476562 26.97273438 -0.70234375 26.06265625 -0.875 25.125 C-1.03742187 24.22007813 -1.19984375 23.31515625 -1.3671875 22.3828125 C-1.83044703 19.83494012 -1.83044703 19.83494012 -4 18 C-6.58090067 17.38161448 -9.16539655 16.98346569 -11.78515625 16.5625 C-12.51605469 16.376875 -13.24695313 16.19125 -14 16 C-14.33 15.34 -14.66 14.68 -15 14 C-13.84371094 13.81824219 -13.84371094 13.81824219 -12.6640625 13.6328125 C-11.66117188 13.46523438 -10.65828125 13.29765625 -9.625 13.125 C-8.12839844 12.88136719 -8.12839844 12.88136719 -6.6015625 12.6328125 C-3.8574885 12.2041198 -3.8574885 12.2041198 -2 10 C-1.32059533 7.57284794 -1.32059533 7.57284794 -0.875 4.875 C-0.70742188 3.96492188 -0.53984375 3.05484375 -0.3671875 2.1171875 C-0.24601562 1.41851563 -0.12484375 0.71984375 0 0 Z " fill="#28264F" transform="translate(30,16)"/>
<path d="M0 0 C0.66 0.66 1.32 1.32 2 2 C1.8125 5.5 1.8125 5.5 1 9 C-2.22143276 11.14762184 -3.2595467 11.561068 -7 11 C-9.2855347 8.87208838 -9.92303658 7.52591672 -10.375 4.4375 C-10 2 -10 2 -8.9375 0.125 C-5.82785011 -1.68060316 -3.38260527 -0.79952488 0 0 Z " fill="#7952D9" transform="translate(19,42)"/>
<path d="M0 0 C0.99 0.33 1.98 0.66 3 1 C3 1.99 3 2.98 3 4 C4.32 4.33 5.64 4.66 7 5 C6.67 5.99 6.34 6.98 6 8 C5.01 8 4.02 8 3 8 C2.67 9.32 2.34 10.64 2 12 C1.01 11.67 0.02 11.34 -1 11 C-1 10.01 -1 9.02 -1 8 C-2.32 7.67 -3.64 7.34 -5 7 C-4.67 6.01 -4.34 5.02 -4 4 C-3.01 4 -2.02 4 -1 4 C-0.67 2.68 -0.34 1.36 0 0 Z " fill="#895AF2" transform="translate(46,9)"/>
</svg>
